<svg width="155" height="40" viewBox="0 0 155 40" fill="none" xmlns="http://www.w3.org/2000/svg">
<path d="M19.6356 13.4912V40H10.1867C8.13298 40 6.42872 39.6462 5.07394 38.9386C3.71054 38.231 2.6923 37.2516 2.01922 36.0004C1.34615 34.7578 1.00961 33.321 1.00961 31.6901C1.00961 30.0678 1.35046 28.6397 2.03217 27.4057C2.70524 26.1804 3.72348 25.2269 5.08689 24.5452C6.44166 23.8635 8.14592 23.5226 10.1997 23.5226H17.3575V26.9656H10.5621C9.26771 26.9656 8.21495 27.1512 7.40381 27.5222C6.58404 27.8933 5.98432 28.4326 5.60464 29.1402C5.22495 29.8478 5.03511 30.6977 5.03511 31.6901C5.03511 32.6911 5.22927 33.5583 5.61758 34.2918C5.99726 35.0253 6.59699 35.5862 7.41676 35.9745C8.2279 36.3714 9.2936 36.5699 10.6139 36.5699H15.636V13.4912H19.6356ZM6.54953 25.4512L0 13.4912H4.55619L10.9763 25.4512H6.54953Z" fill="white"/>
<path d="M25.4609 26.5088V0H34.9099C36.9636 0 38.6679 0.353795 40.0226 1.06139C41.386 1.76898 42.4043 2.74838 43.0774 3.99961C43.7504 5.24221 44.087 6.67896 44.087 8.30987C44.087 9.93215 43.7461 11.3603 43.0644 12.5942C42.3913 13.8196 41.3731 14.7731 40.0097 15.4548C38.6549 16.1365 36.9507 16.4774 34.8969 16.4774H27.739V13.0343H34.5345C35.8289 13.0343 36.8816 12.8488 37.6928 12.4778C38.5125 12.1067 39.1123 11.5674 39.4919 10.8598C39.8716 10.1522 40.0615 9.30223 40.0615 8.30987C40.0615 7.30889 39.8673 6.44166 39.479 5.70818C39.0993 4.97471 38.4996 4.41381 37.6798 4.0255C36.8687 3.62856 35.803 3.43009 34.4827 3.43009H29.4605V26.5088H25.4609ZM38.547 14.5487L45.0966 26.5088H40.5404L34.1203 14.5487H38.547Z" fill="white"/>
<path d="M57.2119 26.91C55.2531 26.91 53.5661 26.4915 52.1509 25.6545C50.7444 24.8088 49.6571 23.6223 48.8891 22.0949C48.1297 20.559 47.75 18.7598 47.75 16.6974C47.75 14.6609 48.1297 12.8661 48.8891 11.3128C49.6571 9.75957 50.7271 8.54717 52.0991 7.67563C53.4798 6.80409 55.0934 6.36831 56.9401 6.36831C58.0619 6.36831 59.1491 6.55384 60.2019 6.92489C61.2547 7.29595 62.1996 7.87842 63.0366 8.6723C63.8736 9.46618 64.5337 10.4974 65.017 11.7658C65.5002 13.0257 65.7418 14.5574 65.7418 16.3609V17.7329H49.9375V14.8335H61.9493C61.9493 13.8153 61.7422 12.9135 61.328 12.1283C60.9138 11.3344 60.3313 10.7088 59.5806 10.2514C58.8385 9.79409 57.9669 9.56542 56.966 9.56542C55.8787 9.56542 54.9295 9.83292 54.1183 10.3679C53.3158 10.8943 52.6945 11.5846 52.2545 12.4389C51.823 13.2846 51.6073 14.2036 51.6073 15.1959V17.4611C51.6073 18.79 51.8403 19.9204 52.3062 20.8523C52.7808 21.7843 53.441 22.4962 54.2866 22.9881C55.1323 23.4713 56.1203 23.7129 57.2507 23.7129C57.9842 23.7129 58.653 23.6094 59.257 23.4023C59.861 23.1865 60.3831 22.8673 60.8232 22.4444C61.2633 22.0216 61.5998 21.4995 61.8328 20.8782L65.4959 21.5384C65.2025 22.617 64.6761 23.5619 63.9168 24.373C63.166 25.1755 62.2211 25.8012 61.0821 26.2499C59.9517 26.69 58.6616 26.91 57.2119 26.91Z" fill="white"/>
<path d="M84.9341 11.4811L81.4264 12.1024C81.2797 11.6537 81.0467 11.2265 80.7274 10.821C80.4168 10.4154 79.9939 10.0832 79.4589 9.82429C78.9239 9.56541 78.2552 9.43598 77.4527 9.43598C76.3568 9.43598 75.4421 9.68191 74.7086 10.1738C73.9751 10.657 73.6084 11.2826 73.6084 12.0506C73.6084 12.7151 73.8543 13.2501 74.3462 13.6556C74.838 14.0612 75.6319 14.3934 76.7278 14.6523L79.8861 15.3771C81.7155 15.8 83.0789 16.4515 83.9763 17.3317C84.8737 18.2118 85.3224 19.3552 85.3224 20.7617C85.3224 21.9526 84.9773 23.0139 84.2869 23.9459C83.6052 24.8692 82.6517 25.5941 81.4264 26.1204C80.2097 26.6468 78.7988 26.91 77.1938 26.91C74.9675 26.91 73.151 26.4354 71.7445 25.4862C70.3379 24.5284 69.475 23.1693 69.1557 21.4089L72.8965 20.8394C73.1294 21.8145 73.6084 22.5523 74.3332 23.0528C75.0581 23.5446 76.003 23.7906 77.1679 23.7906C78.4364 23.7906 79.4503 23.5274 80.2097 23.001C80.969 22.466 81.3487 21.8145 81.3487 21.0465C81.3487 20.4252 81.1157 19.9031 80.6498 19.4803C80.1924 19.0575 79.4891 18.7382 78.5399 18.5225L75.1746 17.7847C73.3193 17.3619 71.9473 16.6888 71.0585 15.7655C70.1783 14.8421 69.7382 13.6729 69.7382 12.2577C69.7382 11.0841 70.0661 10.0573 70.7219 9.1771C71.3777 8.29693 72.2838 7.61091 73.4401 7.11905C74.5964 6.61856 75.921 6.36831 77.4138 6.36831C79.5625 6.36831 81.2538 6.83429 82.4878 7.76624C83.7217 8.68956 84.5372 9.92784 84.9341 11.4811Z" fill="white"/>
<path d="M98.8583 6.62719V9.73368H87.9986V6.62719H98.8583ZM90.9109 1.8639H94.7811V20.6711C94.7811 21.4219 94.8932 21.9871 95.1176 22.3668C95.342 22.7378 95.631 22.9924 95.9848 23.1304C96.3473 23.2599 96.7399 23.3246 97.1627 23.3246C97.4734 23.3246 97.7452 23.303 97.9782 23.2599C98.2112 23.2167 98.3924 23.1822 98.5218 23.1563L99.2208 26.3534C98.9964 26.4397 98.6771 26.526 98.2629 26.6123C97.8487 26.7072 97.331 26.759 96.7097 26.7676C95.6914 26.7849 94.7422 26.6037 93.8621 26.224C92.9819 25.8443 92.27 25.2575 91.7263 24.4636C91.1827 23.6698 90.9109 22.6731 90.9109 21.4736V1.8639Z" fill="white"/>
<path d="M108.925 26.9488C107.665 26.9488 106.526 26.7159 105.508 26.2499C104.49 25.7753 103.683 25.0893 103.088 24.1918C102.501 23.2944 102.208 22.1942 102.208 20.8912C102.208 19.7694 102.423 18.8461 102.855 18.1212C103.286 17.3964 103.869 16.8225 104.602 16.3997C105.336 15.9769 106.155 15.6576 107.061 15.4419C107.967 15.2261 108.891 15.0622 109.831 14.95C111.022 14.8119 111.989 14.6998 112.731 14.6135C113.473 14.5185 114.012 14.3675 114.349 14.1604C114.685 13.9533 114.854 13.6168 114.854 13.1508V13.0602C114.854 11.9298 114.534 11.0539 113.896 10.4326C113.266 9.81135 112.325 9.5007 111.074 9.5007C109.771 9.5007 108.744 9.78977 107.993 10.3679C107.251 10.9375 106.738 11.5717 106.453 12.2707L102.816 11.4423C103.247 10.2342 103.877 9.25908 104.706 8.51697C105.543 7.76624 106.505 7.2226 107.592 6.88606C108.679 6.5409 109.823 6.36831 111.022 6.36831C111.816 6.36831 112.657 6.46324 113.546 6.65308C114.444 6.83429 115.281 7.17083 116.057 7.66269C116.843 8.15455 117.485 8.85782 117.986 9.77252C118.486 10.6786 118.737 11.8565 118.737 13.3062V26.5088H114.957V23.7906H114.802C114.552 24.2911 114.176 24.7829 113.676 25.2662C113.175 25.7494 112.532 26.1506 111.747 26.4699C110.962 26.7892 110.021 26.9488 108.925 26.9488ZM109.767 23.8423C110.837 23.8423 111.751 23.6309 112.511 23.2081C113.279 22.7853 113.861 22.233 114.258 21.5513C114.664 20.861 114.867 20.1232 114.867 19.3379V16.7751C114.728 16.9131 114.461 17.0426 114.064 17.1634C113.676 17.2756 113.231 17.3748 112.731 17.4611C112.23 17.5388 111.743 17.6121 111.268 17.6811C110.794 17.7415 110.397 17.7933 110.077 17.8365C109.327 17.9314 108.641 18.091 108.019 18.3154C107.407 18.5397 106.915 18.8633 106.544 19.2862C106.181 19.7004 106 20.2526 106 20.943C106 21.9008 106.354 22.6256 107.061 23.1175C107.769 23.6007 108.671 23.8423 109.767 23.8423Z" fill="white"/>
<path d="M133.172 6.62719V9.73368H122.312V6.62719H133.172ZM125.225 1.8639H129.095V20.6711C129.095 21.4219 129.207 21.9871 129.431 22.3668C129.656 22.7378 129.945 22.9924 130.299 23.1304C130.661 23.2599 131.054 23.3246 131.477 23.3246C131.787 23.3246 132.059 23.303 132.292 23.2599C132.525 23.2167 132.706 23.1822 132.836 23.1563L133.535 26.3534C133.31 26.4397 132.991 26.526 132.577 26.6123C132.163 26.7072 131.645 26.759 131.024 26.7676C130.005 26.7849 129.056 26.6037 128.176 26.224C127.296 25.8443 126.584 25.2575 126.04 24.4636C125.497 23.6698 125.225 22.6731 125.225 21.4736V1.8639Z" fill="white"/>
<path d="M145.808 26.91C143.85 26.91 142.163 26.4915 140.747 25.6545C139.341 24.8088 138.254 23.6223 137.486 22.0949C136.726 20.559 136.347 18.7598 136.347 16.6974C136.347 14.6609 136.726 12.8661 137.486 11.3128C138.254 9.75957 139.324 8.54717 140.696 7.67563C142.076 6.80409 143.69 6.36831 145.537 6.36831C146.658 6.36831 147.746 6.55384 148.798 6.92489C149.851 7.29595 150.796 7.87842 151.633 8.6723C152.47 9.46618 153.13 10.4974 153.614 11.7658C154.097 13.0257 154.338 14.5574 154.338 16.3609V17.7329H138.534V14.8335H150.546C150.546 13.8153 150.339 12.9135 149.925 12.1283C149.51 11.3344 148.928 10.7088 148.177 10.2514C147.435 9.79409 146.564 9.56542 145.563 9.56542C144.475 9.56542 143.526 9.83292 142.715 10.3679C141.912 10.8943 141.291 11.5846 140.851 12.4389C140.42 13.2846 140.204 14.2036 140.204 15.1959V17.4611C140.204 18.79 140.437 19.9204 140.903 20.8523C141.377 21.7843 142.038 22.4962 142.883 22.9881C143.729 23.4713 144.717 23.7129 145.847 23.7129C146.581 23.7129 147.25 23.6094 147.854 23.4023C148.458 23.1865 148.98 22.8673 149.42 22.4444C149.86 22.0216 150.196 21.4995 150.429 20.8782L154.092 21.5384C153.799 22.617 153.273 23.5619 152.513 24.373C151.763 25.1755 150.818 25.8012 149.679 26.2499C148.548 26.69 147.258 26.91 145.808 26.91Z" fill="white"/>
</svg>
